<svg version="1.2" xmlns="http://www.w3.org/2000/svg" viewBox="0 0 13 11" width="13" height="11">
	<title>MA_TSR_star-svg</title>
	<style>
		.s0 { fill: #000000 } 
	</style>
	<path id="Layer" class="s0" d="m6 0.6c0.2-0.4 0.8-0.4 1 0l1.1 2.8c0.1 0.1 0.2 0.2 0.4 0.3l3 0.2c0.4 0 0.6 0.6 0.3 0.9l-2.3 1.9c-0.1 0.1-0.2 0.3-0.1 0.5l0.6 2.9c0.1 0.4-0.3 0.8-0.7 0.5l-2.5-1.5c-0.2-0.1-0.4-0.1-0.6 0l-2.5 1.5c-0.4 0.3-0.8-0.1-0.7-0.5l0.6-2.9c0.1-0.2 0-0.4-0.1-0.5l-2.3-1.9c-0.3-0.3-0.1-0.9 0.3-0.9l3-0.2c0.2-0.1 0.3-0.2 0.4-0.3z"/>
</svg>